<svg xmlns="http://www.w3.org/2000/svg" width="61" height="60" viewBox="0 0 61 60" fill="none" style="transform: rotate(90deg);"><script xmlns=""/>
<path d="M22.3185 16.3133C26.0123 14.1967 29.086 14.1967 33.2502 14.1967H56.065C54.9264 12.3764 53.5954 10.6884 52.0986 9.15918H33.2555C28.1077 9.15918 24.6331 9.16976 19.774 11.9531C13.4876 15.5566 9.25391 22.2873 9.25391 29.997C9.25391 30.8489 9.30736 31.6903 9.40893 32.5157H14.4498C14.3696 31.6956 14.3429 30.8542 14.3429 29.997C14.3429 24.1499 17.5502 19.0436 22.3185 16.3133Z" fill="#F0047F"/>
<path d="M17.6938 8.3764C23.4617 5.06923 27.3105 5.03748 33.2494 5.03748H47.1158C42.3102 1.85731 36.5263 0 30.304 0C24.9584 0 19.7786 1.37049 15.1493 4.01623C5.68234 9.43999 0 19.3615 0 29.9974C0 30.8334 0.0320734 31.6853 0.106911 32.5161H5.21727C5.13174 31.6853 5.08898 30.8493 5.08898 29.9974C5.08898 20.7584 10.1566 12.6942 17.6938 8.3764Z" fill="#F0047F"/>
<path d="M33.2548 18.3193C30.0635 18.3193 27.1395 18.3193 24.4079 19.8803C20.8798 21.9017 18.5117 25.6745 18.5117 29.9976C18.5117 30.8601 18.5652 31.7068 18.7255 32.5164H23.9161C23.6969 31.7279 23.6007 30.8866 23.6007 29.9976C23.6007 27.5371 24.9478 25.394 26.9524 24.2458C28.5133 23.3515 31.309 23.3568 33.2548 23.3568H59.865C59.4694 21.6159 58.9189 19.9332 58.2293 18.3193H33.2548Z" fill="#F0047F"/>
<path d="M40.8394 48.047C47.1258 44.4435 51.3594 37.7128 51.3594 30.0031C51.3594 29.1512 51.306 28.3098 51.2044 27.4844H46.1635C46.2437 28.3046 46.2705 29.1459 46.2705 30.0031C46.2705 35.8502 43.0631 40.9565 38.2949 43.6869C34.6011 45.8035 31.5274 45.8035 27.3632 45.8035H4.54297C5.68157 47.6237 7.01262 49.3117 8.50938 50.8409H27.3578C32.5056 50.8409 35.9802 50.8304 40.8394 48.047Z" fill="#00C853"/>
<path d="M55.3961 27.4789C55.4816 28.3097 55.5244 29.1457 55.5244 29.9977C55.5244 39.2366 50.4568 47.3008 42.9195 51.6186C37.1517 54.9258 33.2975 54.9575 27.3639 54.9575H13.4922C18.3032 58.1377 24.0871 59.995 30.304 59.995C35.6496 59.995 40.8294 58.6245 45.4587 55.9788C54.9257 50.555 60.608 40.6335 60.608 29.9924C60.608 29.1563 60.5759 28.3044 60.5011 27.4736H55.3907L55.3961 27.4789Z" fill="#00C853"/>
<path d="M36.2052 40.1145C39.7333 38.0932 42.1013 34.3204 42.1013 29.9973C42.1013 29.1347 42.0479 28.2881 41.8875 27.4785H36.697C36.9161 28.2669 37.0124 29.1083 37.0124 29.9973C37.0124 32.4578 35.6653 34.6008 33.6607 35.7491C32.0998 36.6433 29.3041 36.6381 27.3583 36.6381H0.748047C1.14362 38.3789 1.69421 40.0616 2.38379 41.6755H27.3583C30.5496 41.6755 33.4736 41.6755 36.2052 40.1145Z" fill="#00C853"/>
<script xmlns=""/></svg>